<?xml version="1.0" encoding="UTF-8" standalone="no"?>
<!-- Created with Inkscape (http://www.inkscape.org/) -->

<svg
   width="256mm"
   height="256mm"
   viewBox="0 0 256 256"
   version="1.1"
   id="svg5"
   inkscape:version="1.1.2 (b8e25be833, 2022-02-05)"
   sodipodi:docname="onect.svg"
   xmlns:inkscape="http://www.inkscape.org/namespaces/inkscape"
   xmlns:sodipodi="http://sodipodi.sourceforge.net/DTD/sodipodi-0.dtd"
   xmlns="http://www.w3.org/2000/svg"
   xmlns:svg="http://www.w3.org/2000/svg">
  <sodipodi:namedview
     id="namedview7"
     pagecolor="#ffffff"
     bordercolor="#666666"
     borderopacity="1.0"
     inkscape:pageshadow="2"
     inkscape:pageopacity="0.0"
     inkscape:pagecheckerboard="0"
     inkscape:document-units="mm"
     showgrid="false"
     inkscape:zoom="1.0289025"
     inkscape:cx="492.75805"
     inkscape:cy="454.85358"
     inkscape:window-width="1920"
     inkscape:window-height="1017"
     inkscape:window-x="-8"
     inkscape:window-y="-8"
     inkscape:window-maximized="1"
     inkscape:current-layer="layer1"
     showguides="false" />
  <defs
     id="defs2" />
  <g
     inkscape:label="Слой 1"
     inkscape:groupmode="layer"
     id="layer1">
    <path
       style="color:#000000;fill:#620092;stroke:#ffffff;stroke-width:10;stroke-linecap:round;stroke-miterlimit:4;stroke-dasharray:none;stroke-opacity:1;paint-order:markers stroke fill"
       d="m 206.12503,97.381405 a 2.5432949,2.5432949 0 0 0 -2.54311,2.543106 v 38.638339 a 2.5432949,2.5432949 0 0 0 2.54311,2.5431 2.5432949,2.5432949 0 0 0 2.54311,-2.5431 V 99.924511 a 2.5432949,2.5432949 0 0 0 -2.54311,-2.543106 z"
       id="path9731" />
    <path
       style="color:#000000;fill:#620092;stroke:#ffffff;stroke-width:10;stroke-linecap:round;stroke-miterlimit:4;stroke-dasharray:none;stroke-opacity:1;paint-order:markers stroke fill"
       d="M 129.8337,5 C 63.598458,5 5,58.325094 5,126.87394 c 0,68.61469 60.119076,124.12613 123.45798,124.12613 47.57905,0 78.49681,-22.97826 97.09225,-45.78906 18.59545,-22.8108 25.29594,-45.72337 25.29594,-45.72337 a 3.8149471,3.8149471 0 0 0 -2.58816,-4.73337 3.8149471,3.8149471 0 0 0 -4.73336,2.59003 c 0,0 -6.30129,21.47134 -23.88831,43.04513 -17.58703,21.57378 -46.03415,42.98132 -91.17836,42.98132 -58.847865,0 -115.82866,-52.36931 -115.82866,-116.49681 0,-64.193369 55.06516,-114.24462 117.20438,-114.24462 31.5312,0 50.1227,6.946473 60.78119,13.614537 5.32924,3.334031 8.68848,6.609725 10.69607,8.986269 2.00758,2.376545 2.53747,3.590379 2.53747,3.590379 a 3.8149471,3.8149471 0 0 0 5.07308,1.837418 3.8149471,3.8149471 0 0 0 1.83742,-5.071199 c 0,0 -1.12971,-2.335179 -3.61854,-5.281404 -2.48883,-2.946224 -6.46226,-6.767908 -12.47717,-10.530902 C 182.63339,12.248431 162.48972,5 129.8337,5 Z"
       id="path961" />
    <g
       id="path2167"
       transform="matrix(0.96093777,0,0,0.96093777,1.8249998,5)"
       style="stroke:#ffffff;stroke-width:10.4065;stroke-miterlimit:4;stroke-dasharray:none;stroke-opacity:1;paint-order:markers stroke fill">
      <path
         style="color:#000000;fill:#000000;fill-opacity:0;fill-rule:evenodd;stroke:#ffffff;stroke-width:10.4065;stroke-linecap:round;stroke-miterlimit:4;stroke-dasharray:none;stroke-opacity:1;paint-order:markers stroke fill"
         d="M 57.690195,121.81118 A 18.720972,18.361019 0 0 1 38.969223,140.1722 18.720972,18.361019 0 0 1 20.248251,121.81118 18.720972,18.361019 0 0 1 38.969223,103.45016 18.720972,18.361019 0 0 1 57.690195,121.81118 Z"
         id="path835" />
      <path
         style="color:#000000;fill:#620092;fill-rule:evenodd;stroke:#ffffff;stroke-width:10.4065;stroke-linecap:round;stroke-miterlimit:4;stroke-dasharray:none;stroke-opacity:1;paint-order:markers stroke fill"
         d="m 38.96875,100.80273 c -11.742166,0 -21.367188,9.4089 -21.367188,21.00782 0,11.59891 9.625022,21.00781 21.367188,21.00781 11.742166,0 21.367187,-9.4089 21.367187,-21.00781 0,-11.59892 -9.625021,-21.00782 -21.367187,-21.00782 z m 0,5.29493 c 8.936428,0 16.074219,7.0308 16.074219,15.71289 0,8.68209 -7.137791,15.71484 -16.074219,15.71484 -8.936428,0 -16.074219,-7.03275 -16.074219,-15.71484 0,-8.68209 7.137791,-15.71289 16.074219,-15.71289 z"
         id="path837" />
    </g>
    <path
       style="color:#000000;fill:#620092;stroke:#ffffff;stroke-width:10;stroke-linecap:round;stroke-miterlimit:4;stroke-dasharray:none;stroke-opacity:1;paint-order:markers stroke fill"
       d="m 88.445809,99.832546 c -1.23728,0.06847 -2.502611,0.336694 -3.811845,0.658764 -2.618468,0.64415 -5.39485,1.68172 -7.980288,2.77771 -5.170875,2.192 -9.592486,4.65267 -9.592486,4.65267 a 2.5432949,2.5432949 0 0 0 -0.987213,3.45713 2.5432949,2.5432949 0 0 0 3.459,0.98908 c 0,0 4.235856,-2.34963 9.106387,-4.41431 2.435266,-1.03233 5.025321,-1.98483 7.210787,-2.52246 1.986904,-0.48878 3.518404,-0.4649 4.083986,-0.34909 0.02213,0.0655 0.03483,0.0824 0.08446,0.31532 0.15241,0.71551 0.216571,2.01505 0.135131,3.58849 -0.162877,3.14688 -0.831689,7.42049 -1.490204,11.69454 -0.658514,4.27405 -1.309376,8.53985 -1.377594,12.04363 -0.0341,1.75189 0.04291,3.3077 0.521759,4.78029 0.478841,1.47259 1.817932,3.16815 3.71425,3.43648 7.728345,1.09356 13.516941,-4.01079 13.516941,-4.01079 a 2.5432949,2.5432949 0 0 0 0.27964,-3.58475 2.5432949,2.5432949 0 0 0 -3.58662,-0.28152 c 0,0 -4.135516,3.30649 -9.091369,2.82462 -0.15703,-0.50251 -0.298366,-1.62151 -0.270264,-3.06486 0.05699,-2.92734 0.665353,-7.11252 1.321289,-11.36984 0.655936,-4.25732 1.355949,-8.59584 1.542756,-12.20504 0.0934,-1.8046 0.07758,-3.41963 -0.240234,-4.91167 -0.317815,-1.49204 -1.073334,-3.23225 -2.901583,-3.96199 -1.199027,-0.478589 -2.409403,-0.610871 -3.646683,-0.542404 z"
       id="path3556" />
    <path
       style="color:#000000;fill:#620092;stroke:#ffffff;stroke-width:10;stroke-linecap:round;stroke-miterlimit:4;stroke-dasharray:none;stroke-opacity:1;paint-order:markers stroke fill"
       d="m 126.54549,99.481579 c -7.3084,0.511823 -12.67199,3.441831 -16.09946,7.353431 -2.88785,3.29575 -4.35981,7.17945 -4.88915,10.85934 a 2.5432949,2.5432949 0 0 0 -0.0132,0.0132 2.5432949,2.5432949 0 0 0 0.01,0.0225 c -0.096,0.67542 -0.22092,1.35841 -0.2515,2.01384 -0.21046,4.51089 1.52665,9.72345 4.96984,14.04434 3.44321,4.32088 8.82873,7.69411 15.60586,7.57489 6.46185,-0.11368 11.03839,-2.26857 13.92234,-4.45936 2.88394,-2.19079 4.2285,-4.59073 4.2285,-4.59073 a 2.5432949,2.5432949 0 0 0 -1.01349,-3.45149 2.5432949,2.5432949 0 0 0 -3.4515,1.01349 c 0,0 -0.70656,1.35815 -2.83964,2.97853 -2.13308,1.62039 -5.53845,3.32838 -10.93629,3.42334 -5.0826,0.0895 -8.86543,-2.30386 -11.53877,-5.65864 -2.5541,-3.20515 -3.84143,-7.30487 -3.83624,-10.20621 l 37.20819,1.22557 -0.75449,-3.23003 c 0,0 -1.10839,-4.83352 -4.10088,-9.60938 -2.99249,-4.77586 -8.34411,-9.868122 -16.21958,-9.31659 z m 0.3566,5.074961 c 5.60208,-0.39233 9.08282,2.99888 11.55377,6.9424 1.08107,1.72531 1.76905,3.38983 2.32352,4.82345 l -29.43247,-0.96845 c 0.63325,-1.81441 1.55091,-3.59976 2.9241,-5.16691 2.55716,-2.91835 6.46194,-5.19846 12.63108,-5.63049 z"
       id="path4889" />
    <path
       style="color:#000000;fill:#620092;stroke:#ffffff;stroke-width:10;stroke-linecap:round;stroke-miterlimit:4;stroke-dasharray:none;stroke-opacity:1;paint-order:markers stroke fill"
       d="m 173.32344,98.042049 c -4.34657,0 -9.48081,1.868655 -13.80972,5.457831 -4.32891,3.58917 -7.77571,9.112 -7.77571,16.12385 0,7.10014 3.82012,12.68116 8.29371,16.33407 4.4736,3.65291 9.46459,5.64551 13.45313,5.64551 3.72366,0 7.21813,-1.4852 9.89654,-2.87531 2.67841,-1.39011 4.58509,-2.8021 4.58509,-2.8021 a 2.5432949,2.5432949 0 0 0 0.52739,-3.55848 2.5432949,2.5432949 0 0 0 -3.55659,-0.52927 c 0,0 -1.58854,1.17736 -3.89818,2.37608 -2.30963,1.19871 -5.29887,2.30287 -7.55425,2.30287 -1.99049,0 -6.60194,-1.53118 -10.23623,-4.49877 -3.63431,-2.96759 -6.4244,-7.10438 -6.4244,-12.3946 0,-5.3785 2.52052,-9.37472 5.93642,-12.20691 3.4159,-2.83218 7.80207,-4.28855 10.5628,-4.28855 6.30918,0 9.76892,2.79835 9.76892,2.79835 a 2.5432949,2.5432949 0 0 0 3.57161,-0.42041 2.5432949,2.5432949 0 0 0 -0.41854,-3.57161 c 0,0 -5.01657,-3.892551 -12.92199,-3.892551 z"
       id="path6715" />
    <path
       style="color:#000000;fill:#620092;stroke:#ffffff;stroke-width:10;stroke-linecap:round;stroke-miterlimit:4;stroke-dasharray:none;stroke-opacity:1;paint-order:markers stroke fill"
       d="m 194.55061,96.846507 a 2.5432949,2.5432949 0 0 0 -2.54312,2.544984 2.5432949,2.5432949 0 0 0 2.54312,2.543109 h 24.55271 a 2.5432949,2.5432949 0 0 0 2.5431,-2.543109 2.5432949,2.5432949 0 0 0 -2.5431,-2.544984 z"
       id="path8621" />
    <path
       style="color:#000000;fill:#620092;stroke:#ffffff;stroke-width:10;stroke-linecap:round;stroke-miterlimit:4;stroke-dasharray:none;stroke-opacity:1;paint-order:markers stroke fill"
       d="m 67.729342,100.1929 a 2.5432949,2.5432949 0 0 0 -2.543107,2.5431 v 36.2435 a 2.5432949,2.5432949 0 0 0 2.543107,2.54311 2.5432949,2.5432949 0 0 0 2.543107,-2.54311 V 102.736 a 2.5432949,2.5432949 0 0 0 -2.543107,-2.5431 z"
       id="path2446" />
  </g>
</svg>
